PathFileType	4	(X/Y/Z)	/Users/itak/Documents/Research/Walk-IL/dataset/trc/00111_00007.trc
DataRate	CameraRate	NumFrames	NumMarkers	Units	OrigDataRate	OrigDataStartFrame	OrigNumFrames
100.000000	100.000000	4	53	mm	100.000000	207	552
Frame#	Time	RPSI			LPSI			L3			STRN			T10			C7			CLAV			RBAK			LBAK			LSHO			LUPA			LAEL			LAOL			LWTS			LWPS			LFRA			LIFD			LHPS			LHTS			RSHO			RUPA			RAEL			RAOL			RWTS			RWPS			RFRA			RIFD			RHTS			RHPS			RBHD			LFHD			RFHD			LBHD			LHIP			RHIP			RASI			LASI			LKNE			LTHI			LANK			LTIP			LTOE			LMT1			LMT5			LHEE			RKNE			RTHI			RANK			RTIP			RTOE			RMT1			RMT5			RHEE			
		X1	Y1	Z1	X2	Y2	Z2	X3	Y3	Z3	X4	Y4	Z4	X5	Y5	Z5	X6	Y6	Z6	X7	Y7	Z7	X8	Y8	Z8	X9	Y9	Z9	X10	Y10	Z10	X11	Y11	Z11	X12	Y12	Z12	X13	Y13	Z13	X14	Y14	Z14	X15	Y15	Z15	X16	Y16	Z16	X17	Y17	Z17	X18	Y18	Z18	X19	Y19	Z19	X20	Y20	Z20	X21	Y21	Z21	X22	Y22	Z22	X23	Y23	Z23	X24	Y24	Z24	X25	Y25	Z25	X26	Y26	Z26	X27	Y27	Z27	X28	Y28	Z28	X29	Y29	Z29	X30	Y30	Z30	X31	Y31	Z31	X32	Y32	Z32	X33	Y33	Z33	X34	Y34	Z34	X35	Y35	Z35	X36	Y36	Z36	X37	Y37	Z37	X38	Y38	Z38	X39	Y39	Z39	X40	Y40	Z40	X41	Y41	Z41	X42	Y42	Z42	X43	Y43	Z43	X44	Y44	Z44	X45	Y45	Z45	X46	Y46	Z46	X47	Y47	Z47	X48	Y48	Z48	X49	Y49	Z49	X50	Y50	Z50	X51	Y51	Z51	X52	Y52	Z52	X53	Y53	Z53	

208	2.07	428.164794921875	1111.70068359375	-249.9013824462891	434.4037475585938	1109.7470703125	-385.3525085449219	424.8673095703125	1147.950927734375	-321.3099365234375	648.83935546875	1351.711547851562	-312.6612243652344	392.3610229492188	1300.921875	-328.86083984375	428.8553161621094	1591.927368164062	-344.6933898925781	613.2781372070312	1487.205444335938	-318.8844909667969	373.9481506347656	1408.590942382812	-257.8741455078125	429.06298828125	1571.649536132812	-445.1239318847656	522.0685424804688	1561.178344726562	-504.6367797851562	513.3905639648438	1427.602661132812	-573.3804321289062	548.48046875	1209.475219726562	-583.8041381835938	473.4697875976562	1193.379150390625	-540.8189086914062	662.0401000976562	967.04931640625	-508.9517517089844	589.42041015625	930.5374145507812	-548.6388549804688	575.7050170898438	1095.813720703125	-578.5581665039062	686.855224609375	776.7352294921875	-473.0216369628906	625.371826171875	859.0188598632812	-540.4789428710938	688.0106811523438	879.8945922851562	-512.7318725585938	468.075439453125	1577.522583007812	-159.8911590576172	446.1094665527344	1505.450561523438	-96.2635498046875	436.8573303222656	1214.387329101562	-62.1200065612793	438.9451599121094	1208.72265625	-158.5959014892578	587.5975341796875	977.4515991210938	-52.39842224121094	512.1283569335938	958.6902465820312	-27.10191345214844	461.2603149414062	1142.837524414062	-41.58197021484375	622.7196044921875	784.376708984375	-57.10979843139648	620.9868774414062	871.50244140625	-38.40150833129883	552.8478393554688	861.5149536132812	-14.38156414031982	453.7615051269531	1756.680053710938	-257.8655090332031	612.161865234375	1840.401489257812	-385.7295837402344	607.3353271484375	1844.583984375	-256.3053588867188	448.2557983398438	1755.784057617188	-393.2896423339844	535.231689453125	1020.286071777344	-488.7619323730469	553.2736206054688	1024.24755859375	-124.4976577758789	634.0142822265625	1095.828369140625	-177.9750518798828	636.5462646484375	1089.882690429688	-441.9813537597656	605.21875	509.6974792480469	-454.8156433105469	573.80810546875	660.4896850585938	-480.1587219238281	208.9768524169922	141.0004730224609	-477.0434875488281	381.759765625	347.4764404296875	-493.9176025390625	388.5740966796875	30.99135780334473	-393.1493835449219	325.3864440917969	75.53878021240234	-367.7484741210938	297.5854187011719	54.0115966796875	-478.6144409179688	157.6235809326172	197.9745788574219	-425.0526733398438	639.0408325195312	539.1224365234375	-161.6528167724609	602.7630615234375	814.5477294921875	-127.5408935546875	654.4598388671875	25.5700626373291	-199.1674652099609	645.316162109375	405.9423217773438	-154.2609405517578	885.8458251953125	38.51747131347656	-260.6129455566406	824.9967041015625	33.89348220825195	-300.5086364746094	788.5306396484375	36.59109497070312	-181.5288543701172	595.635986328125	30.53590965270996	-246.5667266845703	
209	2.08	420.6849975585938	1110.435791015625	-251.5416564941406	427.2300415039062	1108.296264648438	-387.0051574707031	417.6575012207031	1146.641967773438	-323.0641174316406	641.5389404296875	1350.16796875	-314.3982849121094	385.2327575683594	1299.587036132812	-330.9501037597656	421.7596740722656	1590.464477539062	-346.9124755859375	606.052490234375	1485.664794921875	-320.6553955078125	366.5780944824219	1407.126953125	-260.3196716308594	422.1841430664062	1570.246948242188	-447.3441467285156	515.3728637695312	1559.830322265625	-506.642333984375	506.9019775390625	1426.259033203125	-575.3692626953125	542.4674682617188	1208.14990234375	-585.639404296875	467.2872009277344	1191.900634765625	-543.009765625	656.71923828125	966.3590698242188	-509.9488830566406	584.4469604492188	929.4482421875	-549.8800048828125	570.1266479492188	1094.61962890625	-580.1644287109375	682.3221435546875	776.245361328125	-473.66748046875	620.734375	858.129638671875	-541.4759521484375	683.0772094726562	879.2586059570312	-513.4779663085938	460.4573974609375	1575.928466796875	-162.0205841064453	438.2923889160156	1503.831176757812	-98.54190826416016	428.8415222167969	1212.805053710938	-64.33901214599609	431.3345031738281	1207.12109375	-160.8173217773438	579.931396484375	976.126953125	-53.91218948364258	504.4075927734375	957.2193603515625	-28.90802001953125	453.2599182128906	1141.276245117188	-43.67714309692383	615.4514770507812	783.1262817382812	-58.56450653076172	613.5009765625	870.2484130859375	-39.81009292602539	545.2703247070312	860.1111450195312	-16.06124496459961	446.9313354492188	1755.225341796875	-259.5327758789062	605.6004028320312	1838.8681640625	-387.0998229980469	600.6205444335938	1842.8955078125	-257.6759033203125	441.5668029785156	1754.494506835938	-394.9705810546875	527.787353515625	1018.522766113281	-490.2734680175781	545.48876953125	1023.212890625	-125.9886093139648	626.4315795898438	1094.568969726562	-179.6125030517578	629.191650390625	1088.092041015625	-443.5558776855469	592.1128540039062	507.7002258300781	-454.0072631835938	562.5814208984375	658.2954711914062	-480.4490051269531	203.6516571044922	131.6122131347656	-477.3833618164062	372.1324462890625	340.8037109375	-494.3296813964844	386.3138122558594	30.54458808898926	-389.968505859375	320.3133850097656	70.34122467041016	-366.1388244628906	295.4336547851562	48.44878768920898	-477.5742492675781	149.5749206542969	186.9882659912109	-426.3129577636719	635.5103149414062	538.9216918945312	-162.4275817871094	596.94580078125	813.9047241210938	-128.3743591308594	654.46044921875	25.42130470275879	-198.9624633789062	642.7561645507812	405.8679504394531	-154.6917572021484	885.7022705078125	38.63695907592773	-260.5052795410156	824.908203125	33.98190689086914	-300.5225524902344	788.4976806640625	36.60400772094727	-181.5082855224609	595.5933837890625	30.38774490356445	-246.2876586914062	
210	2.09	412.9000549316406	1109.063354492188	-253.2125549316406	419.786865234375	1106.75341796875	-388.6987609863281	410.1568298339844	1145.284423828125	-324.8798828125	634.069091796875	1348.485107421875	-316.1877746582031	377.9111022949219	1298.230346679688	-333.1316833496094	414.6438598632812	1588.958129882812	-349.2726135253906	598.7286987304688	1484.005615234375	-322.5003662109375	359.0702209472656	1405.638671875	-262.9249572753906	415.3074340820312	1568.804443359375	-449.710205078125	508.6887817382812	1558.379150390625	-508.7723388671875	500.3702087402344	1424.81005859375	-577.4729614257812	536.3565063476562	1206.71435546875	-587.5789184570312	460.9795532226562	1190.31982421875	-545.3004150390625	651.2945556640625	965.590087890625	-510.9932250976562	579.3740234375	928.2576904296875	-551.1441650390625	564.43896484375	1093.310424804688	-581.8412475585938	677.694091796875	775.6810913085938	-474.3026428222656	615.9986572265625	857.1474609375	-542.4818725585938	678.0347290039062	878.5245971679688	-514.2469482421875	452.7171936035156	1574.24853515625	-164.2801971435547	430.3011779785156	1502.128784179688	-100.9701080322266	420.58251953125	1211.13232421875	-66.66275024414062	423.5082092285156	1205.41943359375	-163.1454162597656	572.081787109375	974.7589111328125	-55.45504379272461	496.5021057128906	955.68310546875	-30.75176811218262	445.0130004882812	1139.627685546875	-45.86330795288086	608.07421875	781.85205078125	-60.01877212524414	605.8696899414062	868.966064453125	-41.2304573059082	537.54345703125	858.6563720703125	-17.75997924804688	440.0019226074219	1753.665161132812	-261.3032531738281	598.9458618164062	1837.269653320312	-388.5475769042969	593.7903442382812	1841.14892578125	-259.1223754882812	434.8060913085938	1753.098754882812	-396.7449340820312	520.0596923828125	1016.652282714844	-491.7985534667969	537.4054565429688	1022.048278808594	-127.5269622802734	618.548583984375	1093.196044921875	-181.2804107666016	621.5918579101562	1086.163940429688	-445.1690063476562	578.7531127929688	505.7062683105469	-453.1142883300781	551.1008911132812	656.0870361328125	-480.6987609863281	198.404296875	122.4423675537109	-477.7402648925781	362.2909851074219	334.2406921386719	-494.74755859375	384.479736328125	30.72414016723633	-387.4328918457031	315.6946105957031	65.63787078857422	-364.9811096191406	293.6097106933594	43.71910858154297	-476.9999694824219	141.5016326904297	175.8755035400391	-427.4658813476562	631.9464721679688	538.7034301757812	-163.3209075927734	591.0462036132812	813.2088012695312	-129.2672271728516	654.4820556640625	25.26264572143555	-198.7688140869141	640.2001953125	405.7930908203125	-155.2111358642578	885.5548095703125	38.70243072509766	-260.4137573242188	824.8211669921875	34.04526901245117	-300.5780334472656	788.4774780273438	36.630126953125	-181.5048065185547	595.5745239257812	30.22823333740234	-246.0077667236328	
211	2.1	404.7938537597656	1107.583984375	-254.9032135009766	412.0667114257812	1105.135498046875	-390.4236145019531	402.3515930175781	1143.8974609375	-326.7496948242188	626.4357299804688	1346.68115234375	-318.0238037109375	370.3947143554688	1296.879272460938	-335.4120178222656	407.5295715332031	1587.439575195312	-351.7771911621094	591.3272705078125	1482.250244140625	-324.4142456054688	351.4129028320312	1404.155883789062	-265.7002258300781	408.4695129394531	1567.354125976562	-452.2243347167969	502.0592041015625	1556.844360351562	-511.0241088867188	493.8283386230469	1423.266723632812	-579.6898803710938	530.1548461914062	1205.177124023438	-589.6246948242188	454.5631103515625	1188.649536132812	-547.68359375	645.7533569335938	964.7423095703125	-512.0870361328125	574.1838989257812	926.971435546875	-552.4322509765625	558.6376342773438	1091.8916015625	-583.58740234375	672.9465942382812	775.0408935546875	-474.931396484375	611.1414184570312	856.073974609375	-543.4984130859375	672.8720092773438	877.698486328125	-515.0436401367188	444.8713684082031	1572.501831054688	-166.6618957519531	422.1474914550781	1500.357543945312	-103.5467987060547	412.0909423828125	1209.382446289062	-69.09511566162109	415.4889221191406	1203.627807617188	-165.5792541503906	564.0455932617188	973.3569946289062	-57.01099014282227	488.4028015136719	954.0957641601562	-32.62518310546875	436.5249938964844	1137.90576171875	-48.13856887817383	600.5726928710938	780.5592651367188	-61.44065475463867	598.0757446289062	867.6624145507812	-42.63925933837891	529.6544189453125	857.1640625	-19.46091651916504	432.9875793457031	1752.0205078125	-263.17333984375	592.2083740234375	1835.63330078125	-390.0681457519531	586.8516845703125	1839.370971679688	-260.6415100097656	427.9876403808594	1751.622924804688	-398.6155090332031	512.0676879882812	1014.695007324219	-493.3279113769531	529.0281982421875	1020.752990722656	-129.0941467285156	610.3556518554688	1091.724853515625	-182.9621887207031	613.76513671875	1084.118896484375	-446.8130493164062	565.2490234375	503.7545776367188	-452.1673278808594	539.4623413085938	653.9111328125	-480.9149169921875	193.1228637695312	113.7472381591797	-477.9900512695312	352.2151184082031	327.9956970214844	-495.1119689941406	382.8310546875	31.35313415527344	-385.4570922851562	311.4304504394531	61.63987350463867	-364.1667175292969	291.8957214355469	39.97597503662109	-476.7600402832031	133.3988800048828	164.9649505615234	-428.4009704589844	628.31640625	538.4742431640625	-164.3138275146484	585.0302734375	812.4619750976562	-130.2267608642578	654.5266723632812	25.09366226196289	-198.5758819580078	637.6033325195312	405.7225952148438	-155.8060150146484	885.3984375	38.72483444213867	-260.3299255371094	824.7396850585938	34.11066055297852	-300.6636047363281	788.4786987304688	36.67377090454102	-181.5158081054688	595.582275390625	30.06096458435059	-245.7244720458984	
